<svg width="30" height="30" viewBox="0 0 30 30" fill="none" xmlns="http://www.w3.org/2000/svg">
<path d="M14.9987 29.1668C7.17445 29.1668 0.832031 22.8244 0.832031 15.0002C0.832031 7.17591 7.17445 0.833496 14.9987 0.833496C22.8229 0.833496 29.1654 7.17591 29.1654 15.0002C29.1654 22.8244 22.8229 29.1668 14.9987 29.1668ZM14.9987 26.3335C18.0045 26.3335 20.8872 25.1395 23.0126 23.014C25.138 20.8886 26.332 18.006 26.332 15.0002C26.332 11.9944 25.138 9.1117 23.0126 6.98629C20.8872 4.86087 18.0045 3.66683 14.9987 3.66683C11.9929 3.66683 9.11023 4.86087 6.98482 6.98629C4.85941 9.1117 3.66536 11.9944 3.66536 15.0002C3.66536 18.006 4.85941 20.8886 6.98482 23.014C9.11023 25.1395 11.9929 26.3335 14.9987 26.3335ZM13.582 7.91683H16.4154V10.7502H13.582V7.91683ZM13.582 13.5835H16.4154V22.0835H13.582V13.5835Z" fill="#194A5A"/>
</svg>
