<svg width="100" height="100" viewBox="0 0 30 30" fill="none" xmlns="http://www.w3.org/2000/svg">
<path d="M15.0002 29.1668C7.17591 29.1668 0.833496 22.8244 0.833496 15.0002C0.833496 7.17591 7.17591 0.833496 15.0002 0.833496C22.8244 0.833496 29.1668 7.17591 29.1668 15.0002C29.1668 22.8244 22.8244 29.1668 15.0002 29.1668ZM15.0002 26.3335C18.006 26.3335 20.8886 25.1395 23.014 23.014C25.1395 20.8886 26.3335 18.0059 26.3335 15.0002C26.3335 11.9944 25.1395 9.1117 23.014 6.98629C20.8886 4.86087 18.006 3.66683 15.0002 3.66683C11.9944 3.66683 9.1117 4.86087 6.98629 6.98629C4.86087 9.1117 3.66683 11.9944 3.66683 15.0002C3.66683 18.0059 4.86087 20.8886 6.98629 23.014C9.1117 25.1395 11.9944 26.3335 15.0002 26.3335ZM13.5877 20.6668L7.57683 14.6559L9.58 12.6527L13.5877 16.6605L21.6004 8.64641L23.605 10.6496L13.5877 20.6668Z" fill="#618C40"/>
</svg>
