<svg width="30" height="27" viewBox="0 0 30 27" fill="none" xmlns="http://www.w3.org/2000/svg">
<path d="M16.2251 1.24977L29.7202 24.6248C29.8446 24.8401 29.91 25.0844 29.91 25.3331C29.91 25.5818 29.8446 25.8261 29.7202 26.0414C29.5959 26.2568 29.4171 26.4356 29.2017 26.56C28.9864 26.6843 28.7421 26.7498 28.4934 26.7498H1.50306C1.25438 26.7498 1.01009 26.6843 0.794736 26.56C0.57938 26.4356 0.400548 26.2568 0.276214 26.0414C0.15188 25.8261 0.0864242 25.5818 0.0864258 25.3331C0.0864274 25.0844 0.151886 24.8401 0.276223 24.6248L13.7714 1.24977C13.8957 1.03443 14.0746 0.85561 14.2899 0.731283C14.5053 0.606956 14.7496 0.541504 14.9982 0.541504C15.2469 0.541504 15.4912 0.606956 15.7065 0.731283C15.9219 0.85561 16.1007 1.03443 16.2251 1.24977ZM3.95672 23.9164H26.0397L14.9982 4.79144L3.95672 23.9164ZM13.5816 19.6664H16.4149V22.4998H13.5816V19.6664ZM13.5816 9.74977H16.4149V16.8331H13.5816V9.74977Z" fill="#F08C00"/>
</svg>
