<svg width="12" height="12" viewBox="0 0 12 12" fill="none" xmlns="http://www.w3.org/2000/svg">
<path fill-rule="evenodd" clip-rule="evenodd" d="M0.920854 0.920854C1.14866 0.693049 1.51801 0.693049 1.74581 0.920854L6 5.17504L10.2542 0.920854C10.482 0.693049 10.8513 0.693049 11.0791 0.920854C11.307 1.14866 11.307 1.51801 11.0791 1.74581L6.82496 6L11.0791 10.2542C11.307 10.482 11.307 10.8513 11.0791 11.0791C10.8513 11.307 10.482 11.307 10.2542 11.0791L6 6.82496L1.74581 11.0791C1.51801 11.307 1.14866 11.307 0.920854 11.0791C0.693049 10.8513 0.693049 10.482 0.920854 10.2542L5.17504 6L0.920854 1.74581C0.693049 1.51801 0.693049 1.14866 0.920854 0.920854Z" fill="#343741"/>
</svg>
